<?xml version="1.0" encoding="utf-8" standalone="no"?>
<!DOCTYPE svg PUBLIC "-//W3C//DTD SVG 1.1//EN"
  "http://www.w3.org/Graphics/SVG/1.1/DTD/svg11.dtd">
<!-- Created with matplotlib (http://matplotlib.org/) -->
<svg height="493pt" version="1.1" viewBox="0 0 983 493" width="983pt" xmlns="http://www.w3.org/2000/svg" xmlns:xlink="http://www.w3.org/1999/xlink">
 <defs>
  <style type="text/css">
*{stroke-linecap:butt;stroke-linejoin:round;}
  </style>
 </defs>
 <g id="figure_1">
  <g id="patch_1">
   <path d="M 0 493.2 
L 983.52 493.2 
L 983.52 0 
L 0 0 
z
" style="fill:#ffffff;"/>
  </g>
  <g id="axes_1">
   <g id="patch_2">
    <path d="M 122.94 438.948 
L 885.168 438.948 
L 885.168 59.184 
L 122.94 59.184 
z
" style="fill:#ffffff;"/>
   </g>
   <g id="matplotlib.axis_1">
    <g id="xtick_1">
     <g id="line2d_1">
      <defs>
       <path d="M 0 0 
L 0 3.5 
" id="m0b565f6744" style="stroke:#000000;stroke-width:0.8;"/>
      </defs>
      <g>
       <use style="stroke:#000000;stroke-width:0.8;" x="157.586727" xlink:href="#m0b565f6744" y="438.948"/>
      </g>
     </g>
     <g id="text_1">
      <!-- 0.00 -->
      <defs>
       <path d="M 31.78125 66.40625 
Q 24.171875 66.40625 20.328125 58.90625 
Q 16.5 51.421875 16.5 36.375 
Q 16.5 21.390625 20.328125 13.890625 
Q 24.171875 6.390625 31.78125 6.390625 
Q 39.453125 6.390625 43.28125 13.890625 
Q 47.125 21.390625 47.125 36.375 
Q 47.125 51.421875 43.28125 58.90625 
Q 39.453125 66.40625 31.78125 66.40625 
z
M 31.78125 74.21875 
Q 44.046875 74.21875 50.515625 64.515625 
Q 56.984375 54.828125 56.984375 36.375 
Q 56.984375 17.96875 50.515625 8.265625 
Q 44.046875 -1.421875 31.78125 -1.421875 
Q 19.53125 -1.421875 13.0625 8.265625 
Q 6.59375 17.96875 6.59375 36.375 
Q 6.59375 54.828125 13.0625 64.515625 
Q 19.53125 74.21875 31.78125 74.21875 
z
" id="DejaVuSans-30"/>
       <path d="M 10.6875 12.40625 
L 21 12.40625 
L 21 0 
L 10.6875 0 
z
" id="DejaVuSans-2e"/>
      </defs>
      <g transform="translate(146.453915 453.546438)scale(0.1 -0.1)">
       <use xlink:href="#DejaVuSans-30"/>
       <use x="63.623047" xlink:href="#DejaVuSans-2e"/>
       <use x="95.410156" xlink:href="#DejaVuSans-30"/>
       <use x="159.033203" xlink:href="#DejaVuSans-30"/>
      </g>
     </g>
    </g>
    <g id="xtick_2">
     <g id="line2d_2">
      <g>
       <use style="stroke:#000000;stroke-width:0.8;" x="244.203545" xlink:href="#m0b565f6744" y="438.948"/>
      </g>
     </g>
     <g id="text_2">
      <!-- 0.05 -->
      <defs>
       <path d="M 10.796875 72.90625 
L 49.515625 72.90625 
L 49.515625 64.59375 
L 19.828125 64.59375 
L 19.828125 46.734375 
Q 21.96875 47.46875 24.109375 47.828125 
Q 26.265625 48.1875 28.421875 48.1875 
Q 40.625 48.1875 47.75 41.5 
Q 54.890625 34.8125 54.890625 23.390625 
Q 54.890625 11.625 47.5625 5.09375 
Q 40.234375 -1.421875 26.90625 -1.421875 
Q 22.3125 -1.421875 17.546875 -0.640625 
Q 12.796875 0.140625 7.71875 1.703125 
L 7.71875 11.625 
Q 12.109375 9.234375 16.796875 8.0625 
Q 21.484375 6.890625 26.703125 6.890625 
Q 35.15625 6.890625 40.078125 11.328125 
Q 45.015625 15.765625 45.015625 23.390625 
Q 45.015625 31 40.078125 35.4375 
Q 35.15625 39.890625 26.703125 39.890625 
Q 22.75 39.890625 18.8125 39.015625 
Q 14.890625 38.140625 10.796875 36.28125 
z
" id="DejaVuSans-35"/>
      </defs>
      <g transform="translate(233.070733 453.546438)scale(0.1 -0.1)">
       <use xlink:href="#DejaVuSans-30"/>
       <use x="63.623047" xlink:href="#DejaVuSans-2e"/>
       <use x="95.410156" xlink:href="#DejaVuSans-30"/>
       <use x="159.033203" xlink:href="#DejaVuSans-35"/>
      </g>
     </g>
    </g>
    <g id="xtick_3">
     <g id="line2d_3">
      <g>
       <use style="stroke:#000000;stroke-width:0.8;" x="330.820364" xlink:href="#m0b565f6744" y="438.948"/>
      </g>
     </g>
     <g id="text_3">
      <!-- 0.10 -->
      <defs>
       <path d="M 12.40625 8.296875 
L 28.515625 8.296875 
L 28.515625 63.921875 
L 10.984375 60.40625 
L 10.984375 69.390625 
L 28.421875 72.90625 
L 38.28125 72.90625 
L 38.28125 8.296875 
L 54.390625 8.296875 
L 54.390625 0 
L 12.40625 0 
z
" id="DejaVuSans-31"/>
      </defs>
      <g transform="translate(319.687551 453.546438)scale(0.1 -0.1)">
       <use xlink:href="#DejaVuSans-30"/>
       <use x="63.623047" xlink:href="#DejaVuSans-2e"/>
       <use x="95.410156" xlink:href="#DejaVuSans-31"/>
       <use x="159.033203" xlink:href="#DejaVuSans-30"/>
      </g>
     </g>
    </g>
    <g id="xtick_4">
     <g id="line2d_4">
      <g>
       <use style="stroke:#000000;stroke-width:0.8;" x="417.437182" xlink:href="#m0b565f6744" y="438.948"/>
      </g>
     </g>
     <g id="text_4">
      <!-- 0.15 -->
      <g transform="translate(406.304369 453.546438)scale(0.1 -0.1)">
       <use xlink:href="#DejaVuSans-30"/>
       <use x="63.623047" xlink:href="#DejaVuSans-2e"/>
       <use x="95.410156" xlink:href="#DejaVuSans-31"/>
       <use x="159.033203" xlink:href="#DejaVuSans-35"/>
      </g>
     </g>
    </g>
    <g id="xtick_5">
     <g id="line2d_5">
      <g>
       <use style="stroke:#000000;stroke-width:0.8;" x="504.054" xlink:href="#m0b565f6744" y="438.948"/>
      </g>
     </g>
     <g id="text_5">
      <!-- 0.20 -->
      <defs>
       <path d="M 19.1875 8.296875 
L 53.609375 8.296875 
L 53.609375 0 
L 7.328125 0 
L 7.328125 8.296875 
Q 12.9375 14.109375 22.625 23.890625 
Q 32.328125 33.6875 34.8125 36.53125 
Q 39.546875 41.84375 41.421875 45.53125 
Q 43.3125 49.21875 43.3125 52.78125 
Q 43.3125 58.59375 39.234375 62.25 
Q 35.15625 65.921875 28.609375 65.921875 
Q 23.96875 65.921875 18.8125 64.3125 
Q 13.671875 62.703125 7.8125 59.421875 
L 7.8125 69.390625 
Q 13.765625 71.78125 18.9375 73 
Q 24.125 74.21875 28.421875 74.21875 
Q 39.75 74.21875 46.484375 68.546875 
Q 53.21875 62.890625 53.21875 53.421875 
Q 53.21875 48.921875 51.53125 44.890625 
Q 49.859375 40.875 45.40625 35.40625 
Q 44.1875 33.984375 37.640625 27.21875 
Q 31.109375 20.453125 19.1875 8.296875 
z
" id="DejaVuSans-32"/>
      </defs>
      <g transform="translate(492.921188 453.546438)scale(0.1 -0.1)">
       <use xlink:href="#DejaVuSans-30"/>
       <use x="63.623047" xlink:href="#DejaVuSans-2e"/>
       <use x="95.410156" xlink:href="#DejaVuSans-32"/>
       <use x="159.033203" xlink:href="#DejaVuSans-30"/>
      </g>
     </g>
    </g>
    <g id="xtick_6">
     <g id="line2d_6">
      <g>
       <use style="stroke:#000000;stroke-width:0.8;" x="590.670818" xlink:href="#m0b565f6744" y="438.948"/>
      </g>
     </g>
     <g id="text_6">
      <!-- 0.25 -->
      <g transform="translate(579.538006 453.546438)scale(0.1 -0.1)">
       <use xlink:href="#DejaVuSans-30"/>
       <use x="63.623047" xlink:href="#DejaVuSans-2e"/>
       <use x="95.410156" xlink:href="#DejaVuSans-32"/>
       <use x="159.033203" xlink:href="#DejaVuSans-35"/>
      </g>
     </g>
    </g>
    <g id="xtick_7">
     <g id="line2d_7">
      <g>
       <use style="stroke:#000000;stroke-width:0.8;" x="677.287636" xlink:href="#m0b565f6744" y="438.948"/>
      </g>
     </g>
     <g id="text_7">
      <!-- 0.30 -->
      <defs>
       <path d="M 40.578125 39.3125 
Q 47.65625 37.796875 51.625 33 
Q 55.609375 28.21875 55.609375 21.1875 
Q 55.609375 10.40625 48.1875 4.484375 
Q 40.765625 -1.421875 27.09375 -1.421875 
Q 22.515625 -1.421875 17.65625 -0.515625 
Q 12.796875 0.390625 7.625 2.203125 
L 7.625 11.71875 
Q 11.71875 9.328125 16.59375 8.109375 
Q 21.484375 6.890625 26.8125 6.890625 
Q 36.078125 6.890625 40.9375 10.546875 
Q 45.796875 14.203125 45.796875 21.1875 
Q 45.796875 27.640625 41.28125 31.265625 
Q 36.765625 34.90625 28.71875 34.90625 
L 20.21875 34.90625 
L 20.21875 43.015625 
L 29.109375 43.015625 
Q 36.375 43.015625 40.234375 45.921875 
Q 44.09375 48.828125 44.09375 54.296875 
Q 44.09375 59.90625 40.109375 62.90625 
Q 36.140625 65.921875 28.71875 65.921875 
Q 24.65625 65.921875 20.015625 65.03125 
Q 15.375 64.15625 9.8125 62.3125 
L 9.8125 71.09375 
Q 15.4375 72.65625 20.34375 73.4375 
Q 25.25 74.21875 29.59375 74.21875 
Q 40.828125 74.21875 47.359375 69.109375 
Q 53.90625 64.015625 53.90625 55.328125 
Q 53.90625 49.265625 50.4375 45.09375 
Q 46.96875 40.921875 40.578125 39.3125 
z
" id="DejaVuSans-33"/>
      </defs>
      <g transform="translate(666.154824 453.546438)scale(0.1 -0.1)">
       <use xlink:href="#DejaVuSans-30"/>
       <use x="63.623047" xlink:href="#DejaVuSans-2e"/>
       <use x="95.410156" xlink:href="#DejaVuSans-33"/>
       <use x="159.033203" xlink:href="#DejaVuSans-30"/>
      </g>
     </g>
    </g>
    <g id="xtick_8">
     <g id="line2d_8">
      <g>
       <use style="stroke:#000000;stroke-width:0.8;" x="763.904455" xlink:href="#m0b565f6744" y="438.948"/>
      </g>
     </g>
     <g id="text_8">
      <!-- 0.35 -->
      <g transform="translate(752.771642 453.546438)scale(0.1 -0.1)">
       <use xlink:href="#DejaVuSans-30"/>
       <use x="63.623047" xlink:href="#DejaVuSans-2e"/>
       <use x="95.410156" xlink:href="#DejaVuSans-33"/>
       <use x="159.033203" xlink:href="#DejaVuSans-35"/>
      </g>
     </g>
    </g>
    <g id="xtick_9">
     <g id="line2d_9">
      <g>
       <use style="stroke:#000000;stroke-width:0.8;" x="850.521273" xlink:href="#m0b565f6744" y="438.948"/>
      </g>
     </g>
     <g id="text_9">
      <!-- 0.40 -->
      <defs>
       <path d="M 37.796875 64.3125 
L 12.890625 25.390625 
L 37.796875 25.390625 
z
M 35.203125 72.90625 
L 47.609375 72.90625 
L 47.609375 25.390625 
L 58.015625 25.390625 
L 58.015625 17.1875 
L 47.609375 17.1875 
L 47.609375 0 
L 37.796875 0 
L 37.796875 17.1875 
L 4.890625 17.1875 
L 4.890625 26.703125 
z
" id="DejaVuSans-34"/>
      </defs>
      <g transform="translate(839.38846 453.546438)scale(0.1 -0.1)">
       <use xlink:href="#DejaVuSans-30"/>
       <use x="63.623047" xlink:href="#DejaVuSans-2e"/>
       <use x="95.410156" xlink:href="#DejaVuSans-34"/>
       <use x="159.033203" xlink:href="#DejaVuSans-30"/>
      </g>
     </g>
    </g>
    <g id="text_10">
     <!-- Current I (nA) -->
     <defs>
      <path d="M 64.40625 67.28125 
L 64.40625 56.890625 
Q 59.421875 61.53125 53.78125 63.8125 
Q 48.140625 66.109375 41.796875 66.109375 
Q 29.296875 66.109375 22.65625 58.46875 
Q 16.015625 50.828125 16.015625 36.375 
Q 16.015625 21.96875 22.65625 14.328125 
Q 29.296875 6.6875 41.796875 6.6875 
Q 48.140625 6.6875 53.78125 8.984375 
Q 59.421875 11.28125 64.40625 15.921875 
L 64.40625 5.609375 
Q 59.234375 2.09375 53.4375 0.328125 
Q 47.65625 -1.421875 41.21875 -1.421875 
Q 24.65625 -1.421875 15.125 8.703125 
Q 5.609375 18.84375 5.609375 36.375 
Q 5.609375 53.953125 15.125 64.078125 
Q 24.65625 74.21875 41.21875 74.21875 
Q 47.75 74.21875 53.53125 72.484375 
Q 59.328125 70.75 64.40625 67.28125 
z
" id="DejaVuSans-43"/>
      <path d="M 8.5 21.578125 
L 8.5 54.6875 
L 17.484375 54.6875 
L 17.484375 21.921875 
Q 17.484375 14.15625 20.5 10.265625 
Q 23.53125 6.390625 29.59375 6.390625 
Q 36.859375 6.390625 41.078125 11.03125 
Q 45.3125 15.671875 45.3125 23.6875 
L 45.3125 54.6875 
L 54.296875 54.6875 
L 54.296875 0 
L 45.3125 0 
L 45.3125 8.40625 
Q 42.046875 3.421875 37.71875 1 
Q 33.40625 -1.421875 27.6875 -1.421875 
Q 18.265625 -1.421875 13.375 4.4375 
Q 8.5 10.296875 8.5 21.578125 
z
M 31.109375 56 
z
" id="DejaVuSans-75"/>
      <path d="M 41.109375 46.296875 
Q 39.59375 47.171875 37.8125 47.578125 
Q 36.03125 48 33.890625 48 
Q 26.265625 48 22.1875 43.046875 
Q 18.109375 38.09375 18.109375 28.8125 
L 18.109375 0 
L 9.078125 0 
L 9.078125 54.6875 
L 18.109375 54.6875 
L 18.109375 46.1875 
Q 20.953125 51.171875 25.484375 53.578125 
Q 30.03125 56 36.53125 56 
Q 37.453125 56 38.578125 55.875 
Q 39.703125 55.765625 41.0625 55.515625 
z
" id="DejaVuSans-72"/>
      <path d="M 56.203125 29.59375 
L 56.203125 25.203125 
L 14.890625 25.203125 
Q 15.484375 15.921875 20.484375 11.0625 
Q 25.484375 6.203125 34.421875 6.203125 
Q 39.59375 6.203125 44.453125 7.46875 
Q 49.3125 8.734375 54.109375 11.28125 
L 54.109375 2.78125 
Q 49.265625 0.734375 44.1875 -0.34375 
Q 39.109375 -1.421875 33.890625 -1.421875 
Q 20.796875 -1.421875 13.15625 6.1875 
Q 5.515625 13.8125 5.515625 26.8125 
Q 5.515625 40.234375 12.765625 48.109375 
Q 20.015625 56 32.328125 56 
Q 43.359375 56 49.78125 48.890625 
Q 56.203125 41.796875 56.203125 29.59375 
z
M 47.21875 32.234375 
Q 47.125 39.59375 43.09375 43.984375 
Q 39.0625 48.390625 32.421875 48.390625 
Q 24.90625 48.390625 20.390625 44.140625 
Q 15.875 39.890625 15.1875 32.171875 
z
" id="DejaVuSans-65"/>
      <path d="M 54.890625 33.015625 
L 54.890625 0 
L 45.90625 0 
L 45.90625 32.71875 
Q 45.90625 40.484375 42.875 44.328125 
Q 39.84375 48.1875 33.796875 48.1875 
Q 26.515625 48.1875 22.3125 43.546875 
Q 18.109375 38.921875 18.109375 30.90625 
L 18.109375 0 
L 9.078125 0 
L 9.078125 54.6875 
L 18.109375 54.6875 
L 18.109375 46.1875 
Q 21.34375 51.125 25.703125 53.5625 
Q 30.078125 56 35.796875 56 
Q 45.21875 56 50.046875 50.171875 
Q 54.890625 44.34375 54.890625 33.015625 
z
" id="DejaVuSans-6e"/>
      <path d="M 18.3125 70.21875 
L 18.3125 54.6875 
L 36.8125 54.6875 
L 36.8125 47.703125 
L 18.3125 47.703125 
L 18.3125 18.015625 
Q 18.3125 11.328125 20.140625 9.421875 
Q 21.96875 7.515625 27.59375 7.515625 
L 36.8125 7.515625 
L 36.8125 0 
L 27.59375 0 
Q 17.1875 0 13.234375 3.875 
Q 9.28125 7.765625 9.28125 18.015625 
L 9.28125 47.703125 
L 2.6875 47.703125 
L 2.6875 54.6875 
L 9.28125 54.6875 
L 9.28125 70.21875 
z
" id="DejaVuSans-74"/>
      <path id="DejaVuSans-20"/>
      <path d="M 9.8125 72.90625 
L 19.671875 72.90625 
L 19.671875 0 
L 9.8125 0 
z
" id="DejaVuSans-49"/>
      <path d="M 31 75.875 
Q 24.46875 64.65625 21.28125 53.65625 
Q 18.109375 42.671875 18.109375 31.390625 
Q 18.109375 20.125 21.3125 9.0625 
Q 24.515625 -2 31 -13.1875 
L 23.1875 -13.1875 
Q 15.875 -1.703125 12.234375 9.375 
Q 8.59375 20.453125 8.59375 31.390625 
Q 8.59375 42.28125 12.203125 53.3125 
Q 15.828125 64.359375 23.1875 75.875 
z
" id="DejaVuSans-28"/>
      <path d="M 34.1875 63.1875 
L 20.796875 26.90625 
L 47.609375 26.90625 
z
M 28.609375 72.90625 
L 39.796875 72.90625 
L 67.578125 0 
L 57.328125 0 
L 50.6875 18.703125 
L 17.828125 18.703125 
L 11.1875 0 
L 0.78125 0 
z
" id="DejaVuSans-41"/>
      <path d="M 8.015625 75.875 
L 15.828125 75.875 
Q 23.140625 64.359375 26.78125 53.3125 
Q 30.421875 42.28125 30.421875 31.390625 
Q 30.421875 20.453125 26.78125 9.375 
Q 23.140625 -1.703125 15.828125 -13.1875 
L 8.015625 -13.1875 
Q 14.5 -2 17.703125 9.0625 
Q 20.90625 20.125 20.90625 31.390625 
Q 20.90625 42.671875 17.703125 53.65625 
Q 14.5 64.65625 8.015625 75.875 
z
" id="DejaVuSans-29"/>
     </defs>
     <g transform="translate(469.936031 467.224562)scale(0.1 -0.1)">
      <use xlink:href="#DejaVuSans-43"/>
      <use x="69.824219" xlink:href="#DejaVuSans-75"/>
      <use x="133.203125" xlink:href="#DejaVuSans-72"/>
      <use x="174.300781" xlink:href="#DejaVuSans-72"/>
      <use x="215.382812" xlink:href="#DejaVuSans-65"/>
      <use x="276.90625" xlink:href="#DejaVuSans-6e"/>
      <use x="340.285156" xlink:href="#DejaVuSans-74"/>
      <use x="379.494141" xlink:href="#DejaVuSans-20"/>
      <use x="411.28125" xlink:href="#DejaVuSans-49"/>
      <use x="440.773438" xlink:href="#DejaVuSans-20"/>
      <use x="472.560547" xlink:href="#DejaVuSans-28"/>
      <use x="511.574219" xlink:href="#DejaVuSans-6e"/>
      <use x="574.953125" xlink:href="#DejaVuSans-41"/>
      <use x="643.361328" xlink:href="#DejaVuSans-29"/>
     </g>
    </g>
   </g>
   <g id="matplotlib.axis_2">
    <g id="ytick_1">
     <g id="line2d_10">
      <defs>
       <path d="M 0 0 
L -3.5 0 
" id="md7020a5e8f" style="stroke:#000000;stroke-width:0.8;"/>
      </defs>
      <g>
       <use style="stroke:#000000;stroke-width:0.8;" x="122.94" xlink:href="#md7020a5e8f" y="421.686"/>
      </g>
     </g>
     <g id="text_11">
      <!-- 0 -->
      <g transform="translate(109.5775 425.485219)scale(0.1 -0.1)">
       <use xlink:href="#DejaVuSans-30"/>
      </g>
     </g>
    </g>
    <g id="ytick_2">
     <g id="line2d_11">
      <g>
       <use style="stroke:#000000;stroke-width:0.8;" x="122.94" xlink:href="#md7020a5e8f" y="355.926"/>
      </g>
     </g>
     <g id="text_12">
      <!-- 20 -->
      <g transform="translate(103.215 359.725219)scale(0.1 -0.1)">
       <use xlink:href="#DejaVuSans-32"/>
       <use x="63.623047" xlink:href="#DejaVuSans-30"/>
      </g>
     </g>
    </g>
    <g id="ytick_3">
     <g id="line2d_12">
      <g>
       <use style="stroke:#000000;stroke-width:0.8;" x="122.94" xlink:href="#md7020a5e8f" y="290.166"/>
      </g>
     </g>
     <g id="text_13">
      <!-- 40 -->
      <g transform="translate(103.215 293.965219)scale(0.1 -0.1)">
       <use xlink:href="#DejaVuSans-34"/>
       <use x="63.623047" xlink:href="#DejaVuSans-30"/>
      </g>
     </g>
    </g>
    <g id="ytick_4">
     <g id="line2d_13">
      <g>
       <use style="stroke:#000000;stroke-width:0.8;" x="122.94" xlink:href="#md7020a5e8f" y="224.406"/>
      </g>
     </g>
     <g id="text_14">
      <!-- 60 -->
      <defs>
       <path d="M 33.015625 40.375 
Q 26.375 40.375 22.484375 35.828125 
Q 18.609375 31.296875 18.609375 23.390625 
Q 18.609375 15.53125 22.484375 10.953125 
Q 26.375 6.390625 33.015625 6.390625 
Q 39.65625 6.390625 43.53125 10.953125 
Q 47.40625 15.53125 47.40625 23.390625 
Q 47.40625 31.296875 43.53125 35.828125 
Q 39.65625 40.375 33.015625 40.375 
z
M 52.59375 71.296875 
L 52.59375 62.3125 
Q 48.875 64.0625 45.09375 64.984375 
Q 41.3125 65.921875 37.59375 65.921875 
Q 27.828125 65.921875 22.671875 59.328125 
Q 17.53125 52.734375 16.796875 39.40625 
Q 19.671875 43.65625 24.015625 45.921875 
Q 28.375 48.1875 33.59375 48.1875 
Q 44.578125 48.1875 50.953125 41.515625 
Q 57.328125 34.859375 57.328125 23.390625 
Q 57.328125 12.15625 50.6875 5.359375 
Q 44.046875 -1.421875 33.015625 -1.421875 
Q 20.359375 -1.421875 13.671875 8.265625 
Q 6.984375 17.96875 6.984375 36.375 
Q 6.984375 53.65625 15.1875 63.9375 
Q 23.390625 74.21875 37.203125 74.21875 
Q 40.921875 74.21875 44.703125 73.484375 
Q 48.484375 72.75 52.59375 71.296875 
z
" id="DejaVuSans-36"/>
      </defs>
      <g transform="translate(103.215 228.205219)scale(0.1 -0.1)">
       <use xlink:href="#DejaVuSans-36"/>
       <use x="63.623047" xlink:href="#DejaVuSans-30"/>
      </g>
     </g>
    </g>
    <g id="ytick_5">
     <g id="line2d_14">
      <g>
       <use style="stroke:#000000;stroke-width:0.8;" x="122.94" xlink:href="#md7020a5e8f" y="158.646"/>
      </g>
     </g>
     <g id="text_15">
      <!-- 80 -->
      <defs>
       <path d="M 31.78125 34.625 
Q 24.75 34.625 20.71875 30.859375 
Q 16.703125 27.09375 16.703125 20.515625 
Q 16.703125 13.921875 20.71875 10.15625 
Q 24.75 6.390625 31.78125 6.390625 
Q 38.8125 6.390625 42.859375 10.171875 
Q 46.921875 13.96875 46.921875 20.515625 
Q 46.921875 27.09375 42.890625 30.859375 
Q 38.875 34.625 31.78125 34.625 
z
M 21.921875 38.8125 
Q 15.578125 40.375 12.03125 44.71875 
Q 8.5 49.078125 8.5 55.328125 
Q 8.5 64.0625 14.71875 69.140625 
Q 20.953125 74.21875 31.78125 74.21875 
Q 42.671875 74.21875 48.875 69.140625 
Q 55.078125 64.0625 55.078125 55.328125 
Q 55.078125 49.078125 51.53125 44.71875 
Q 48 40.375 41.703125 38.8125 
Q 48.828125 37.15625 52.796875 32.3125 
Q 56.78125 27.484375 56.78125 20.515625 
Q 56.78125 9.90625 50.3125 4.234375 
Q 43.84375 -1.421875 31.78125 -1.421875 
Q 19.734375 -1.421875 13.25 4.234375 
Q 6.78125 9.90625 6.78125 20.515625 
Q 6.78125 27.484375 10.78125 32.3125 
Q 14.796875 37.15625 21.921875 38.8125 
z
M 18.3125 54.390625 
Q 18.3125 48.734375 21.84375 45.5625 
Q 25.390625 42.390625 31.78125 42.390625 
Q 38.140625 42.390625 41.71875 45.5625 
Q 45.3125 48.734375 45.3125 54.390625 
Q 45.3125 60.0625 41.71875 63.234375 
Q 38.140625 66.40625 31.78125 66.40625 
Q 25.390625 66.40625 21.84375 63.234375 
Q 18.3125 60.0625 18.3125 54.390625 
z
" id="DejaVuSans-38"/>
      </defs>
      <g transform="translate(103.215 162.445219)scale(0.1 -0.1)">
       <use xlink:href="#DejaVuSans-38"/>
       <use x="63.623047" xlink:href="#DejaVuSans-30"/>
      </g>
     </g>
    </g>
    <g id="ytick_6">
     <g id="line2d_15">
      <g>
       <use style="stroke:#000000;stroke-width:0.8;" x="122.94" xlink:href="#md7020a5e8f" y="92.886"/>
      </g>
     </g>
     <g id="text_16">
      <!-- 100 -->
      <g transform="translate(96.8525 96.685219)scale(0.1 -0.1)">
       <use xlink:href="#DejaVuSans-31"/>
       <use x="63.623047" xlink:href="#DejaVuSans-30"/>
       <use x="127.246094" xlink:href="#DejaVuSans-30"/>
      </g>
     </g>
    </g>
    <g id="text_17">
     <!-- Firing rate f (Hz) -->
     <defs>
      <path d="M 9.8125 72.90625 
L 51.703125 72.90625 
L 51.703125 64.59375 
L 19.671875 64.59375 
L 19.671875 43.109375 
L 48.578125 43.109375 
L 48.578125 34.8125 
L 19.671875 34.8125 
L 19.671875 0 
L 9.8125 0 
z
" id="DejaVuSans-46"/>
      <path d="M 9.421875 54.6875 
L 18.40625 54.6875 
L 18.40625 0 
L 9.421875 0 
z
M 9.421875 75.984375 
L 18.40625 75.984375 
L 18.40625 64.59375 
L 9.421875 64.59375 
z
" id="DejaVuSans-69"/>
      <path d="M 45.40625 27.984375 
Q 45.40625 37.75 41.375 43.109375 
Q 37.359375 48.484375 30.078125 48.484375 
Q 22.859375 48.484375 18.828125 43.109375 
Q 14.796875 37.75 14.796875 27.984375 
Q 14.796875 18.265625 18.828125 12.890625 
Q 22.859375 7.515625 30.078125 7.515625 
Q 37.359375 7.515625 41.375 12.890625 
Q 45.40625 18.265625 45.40625 27.984375 
z
M 54.390625 6.78125 
Q 54.390625 -7.171875 48.1875 -13.984375 
Q 42 -20.796875 29.203125 -20.796875 
Q 24.46875 -20.796875 20.265625 -20.09375 
Q 16.0625 -19.390625 12.109375 -17.921875 
L 12.109375 -9.1875 
Q 16.0625 -11.328125 19.921875 -12.34375 
Q 23.78125 -13.375 27.78125 -13.375 
Q 36.625 -13.375 41.015625 -8.765625 
Q 45.40625 -4.15625 45.40625 5.171875 
L 45.40625 9.625 
Q 42.625 4.78125 38.28125 2.390625 
Q 33.9375 0 27.875 0 
Q 17.828125 0 11.671875 7.65625 
Q 5.515625 15.328125 5.515625 27.984375 
Q 5.515625 40.671875 11.671875 48.328125 
Q 17.828125 56 27.875 56 
Q 33.9375 56 38.28125 53.609375 
Q 42.625 51.21875 45.40625 46.390625 
L 45.40625 54.6875 
L 54.390625 54.6875 
z
" id="DejaVuSans-67"/>
      <path d="M 34.28125 27.484375 
Q 23.390625 27.484375 19.1875 25 
Q 14.984375 22.515625 14.984375 16.5 
Q 14.984375 11.71875 18.140625 8.90625 
Q 21.296875 6.109375 26.703125 6.109375 
Q 34.1875 6.109375 38.703125 11.40625 
Q 43.21875 16.703125 43.21875 25.484375 
L 43.21875 27.484375 
z
M 52.203125 31.203125 
L 52.203125 0 
L 43.21875 0 
L 43.21875 8.296875 
Q 40.140625 3.328125 35.546875 0.953125 
Q 30.953125 -1.421875 24.3125 -1.421875 
Q 15.921875 -1.421875 10.953125 3.296875 
Q 6 8.015625 6 15.921875 
Q 6 25.140625 12.171875 29.828125 
Q 18.359375 34.515625 30.609375 34.515625 
L 43.21875 34.515625 
L 43.21875 35.40625 
Q 43.21875 41.609375 39.140625 45 
Q 35.0625 48.390625 27.6875 48.390625 
Q 23 48.390625 18.546875 47.265625 
Q 14.109375 46.140625 10.015625 43.890625 
L 10.015625 52.203125 
Q 14.9375 54.109375 19.578125 55.046875 
Q 24.21875 56 28.609375 56 
Q 40.484375 56 46.34375 49.84375 
Q 52.203125 43.703125 52.203125 31.203125 
z
" id="DejaVuSans-61"/>
      <path d="M 37.109375 75.984375 
L 37.109375 68.5 
L 28.515625 68.5 
Q 23.6875 68.5 21.796875 66.546875 
Q 19.921875 64.59375 19.921875 59.515625 
L 19.921875 54.6875 
L 34.71875 54.6875 
L 34.71875 47.703125 
L 19.921875 47.703125 
L 19.921875 0 
L 10.890625 0 
L 10.890625 47.703125 
L 2.296875 47.703125 
L 2.296875 54.6875 
L 10.890625 54.6875 
L 10.890625 58.5 
Q 10.890625 67.625 15.140625 71.796875 
Q 19.390625 75.984375 28.609375 75.984375 
z
" id="DejaVuSans-66"/>
      <path d="M 9.8125 72.90625 
L 19.671875 72.90625 
L 19.671875 43.015625 
L 55.515625 43.015625 
L 55.515625 72.90625 
L 65.375 72.90625 
L 65.375 0 
L 55.515625 0 
L 55.515625 34.71875 
L 19.671875 34.71875 
L 19.671875 0 
L 9.8125 0 
z
" id="DejaVuSans-48"/>
      <path d="M 5.515625 54.6875 
L 48.1875 54.6875 
L 48.1875 46.484375 
L 14.40625 7.171875 
L 48.1875 7.171875 
L 48.1875 0 
L 4.296875 0 
L 4.296875 8.203125 
L 38.09375 47.515625 
L 5.515625 47.515625 
z
" id="DejaVuSans-7a"/>
     </defs>
     <g transform="translate(90.772812 290.082406)rotate(-90)scale(0.1 -0.1)">
      <use xlink:href="#DejaVuSans-46"/>
      <use x="57.410156" xlink:href="#DejaVuSans-69"/>
      <use x="85.193359" xlink:href="#DejaVuSans-72"/>
      <use x="126.306641" xlink:href="#DejaVuSans-69"/>
      <use x="154.089844" xlink:href="#DejaVuSans-6e"/>
      <use x="217.46875" xlink:href="#DejaVuSans-67"/>
      <use x="280.945312" xlink:href="#DejaVuSans-20"/>
      <use x="312.732422" xlink:href="#DejaVuSans-72"/>
      <use x="353.845703" xlink:href="#DejaVuSans-61"/>
      <use x="415.125" xlink:href="#DejaVuSans-74"/>
      <use x="454.333984" xlink:href="#DejaVuSans-65"/>
      <use x="515.857422" xlink:href="#DejaVuSans-20"/>
      <use x="547.644531" xlink:href="#DejaVuSans-66"/>
      <use x="582.849609" xlink:href="#DejaVuSans-20"/>
      <use x="614.636719" xlink:href="#DejaVuSans-28"/>
      <use x="653.650391" xlink:href="#DejaVuSans-48"/>
      <use x="728.845703" xlink:href="#DejaVuSans-7a"/>
      <use x="781.335938" xlink:href="#DejaVuSans-29"/>
     </g>
    </g>
   </g>
   <g id="line2d_16">
    <path clip-path="url(#pd66b9b72ce)" d="M 157.586727 421.686 
L 199.898046 421.686 
L 200.591674 418.398 
L 270.64812 418.398 
L 271.341748 415.11 
L 274.809889 415.11 
L 275.503517 411.822 
L 276.197145 405.246 
L 276.890773 250.71 
L 277.584401 247.422 
L 278.278029 247.422 
L 278.971658 244.134 
L 279.665286 244.134 
L 280.358914 240.846 
L 281.74617 240.846 
L 282.439799 237.558 
L 284.520683 237.558 
L 285.214311 234.27 
L 287.295196 234.27 
L 287.988824 230.982 
L 290.763337 230.982 
L 291.456965 227.694 
L 294.925106 227.694 
L 295.618734 224.406 
L 299.780503 224.406 
L 300.474131 221.118 
L 304.6359 221.118 
L 305.329528 217.83 
L 309.491297 217.83 
L 310.184925 214.542 
L 315.733951 214.542 
L 316.427579 211.254 
L 321.282976 211.254 
L 321.976604 207.966 
L 328.219258 207.966 
L 328.912886 204.678 
L 335.15554 204.678 
L 335.849168 201.39 
L 342.091821 201.39 
L 342.78545 198.102 
L 349.721731 198.102 
L 350.41536 194.814 
L 357.351641 194.814 
L 358.045269 191.526 
L 365.675179 191.526 
L 366.368808 188.238 
L 373.998717 188.238 
L 374.692346 184.95 
L 383.015884 184.95 
L 383.709512 181.662 
L 392.03305 181.662 
L 392.726678 178.374 
L 401.743844 178.374 
L 402.437473 175.086 
L 411.454639 175.086 
L 412.148267 171.798 
L 421.859061 171.798 
L 422.55269 168.51 
L 432.263484 168.51 
L 432.957112 165.222 
L 443.361535 165.222 
L 444.055163 161.934 
L 454.459586 161.934 
L 455.153214 158.646 
L 466.251265 158.646 
L 466.944893 155.358 
L 478.042943 155.358 
L 478.736572 152.07 
L 490.528251 152.07 
L 491.221879 148.782 
L 503.013558 148.782 
L 503.707186 145.494 
L 516.192493 145.494 
L 516.886121 142.206 
L 529.371428 142.206 
L 530.065057 138.918 
L 542.550364 138.918 
L 543.243992 135.63 
L 557.116555 135.63 
L 557.810183 132.342 
L 570.989119 132.342 
L 571.682747 129.054 
L 585.55531 129.054 
L 586.248939 125.766 
L 600.81513 125.766 
L 601.508758 122.478 
L 616.07495 122.478 
L 616.768578 119.19 
L 632.028398 119.19 
L 632.722026 115.902 
L 647.981846 115.902 
L 648.675474 112.614 
L 664.628922 112.614 
L 665.32255 109.326 
L 681.275998 109.326 
L 681.969627 106.038 
L 697.923075 106.038 
L 698.616703 102.75 
L 715.957407 102.75 
L 716.651035 99.462 
L 733.298111 99.462 
L 733.99174 96.174 
L 752.026072 96.174 
L 752.7197 92.886 
L 770.060405 92.886 
L 770.754033 89.598 
L 789.481993 89.598 
L 790.175622 86.31 
L 808.209954 86.31 
L 808.903582 83.022 
L 828.325171 83.022 
L 829.018799 79.734 
L 848.440388 79.734 
L 849.134016 76.446 
L 850.521273 76.446 
L 850.521273 76.446 
" style="fill:none;stroke:#1f77b4;stroke-linecap:square;stroke-width:1.5;"/>
   </g>
   <g id="line2d_17">
    <path clip-path="url(#pd66b9b72ce)" d="M 157.586727 372.366 
L 158.280355 372.366 
L 158.973984 378.942 
L 159.667612 372.366 
L 161.054868 365.79 
L 161.748496 365.79 
L 162.442124 375.654 
L 163.135753 365.79 
L 163.829381 336.198 
L 164.523009 369.078 
L 165.216637 372.366 
L 165.910265 342.774 
L 166.603894 369.078 
L 167.297522 355.926 
L 167.99115 362.502 
L 168.684778 352.638 
L 169.378406 352.638 
L 170.072034 326.334 
L 170.765663 346.062 
L 171.459291 378.942 
L 172.152919 362.502 
L 172.846547 372.366 
L 173.540175 326.334 
L 174.233803 362.502 
L 174.927432 352.638 
L 175.62106 346.062 
L 176.314688 359.214 
L 177.008316 323.046 
L 177.701944 349.35 
L 178.395572 369.078 
L 179.089201 346.062 
L 179.782829 346.062 
L 180.476457 349.35 
L 181.170085 339.486 
L 182.557342 346.062 
L 183.25097 352.638 
L 183.944598 336.198 
L 184.638226 346.062 
L 185.331854 342.774 
L 186.025482 329.622 
L 186.719111 346.062 
L 187.412739 336.198 
L 188.106367 346.062 
L 188.799995 346.062 
L 189.493623 313.182 
L 190.187251 323.046 
L 190.88088 336.198 
L 191.574508 326.334 
L 192.268136 332.91 
L 193.655392 352.638 
L 194.34902 336.198 
L 195.042649 346.062 
L 195.736277 323.046 
L 196.429905 342.774 
L 197.123533 329.622 
L 197.817161 329.622 
L 198.51079 336.198 
L 199.204418 316.47 
L 199.898046 332.91 
L 200.591674 339.486 
L 201.285302 339.486 
L 201.97893 326.334 
L 202.672559 336.198 
L 203.366187 306.606 
L 204.059815 329.622 
L 204.753443 329.622 
L 205.447071 316.47 
L 206.140699 326.334 
L 206.834328 316.47 
L 207.527956 326.334 
L 208.915212 326.334 
L 209.60884 342.774 
L 210.302468 303.318 
L 210.996097 323.046 
L 211.689725 313.182 
L 212.383353 293.454 
L 213.076981 306.606 
L 213.770609 300.03 
L 214.464238 300.03 
L 215.157866 326.334 
L 215.851494 319.758 
L 216.545122 323.046 
L 217.23875 319.758 
L 217.932378 303.318 
L 218.626007 323.046 
L 219.319635 296.742 
L 220.013263 309.894 
L 220.706891 306.606 
L 221.400519 286.878 
L 222.094147 303.318 
L 222.787776 303.318 
L 223.481404 293.454 
L 224.175032 300.03 
L 224.86866 309.894 
L 225.562288 290.166 
L 226.255916 283.59 
L 226.949545 286.878 
L 227.643173 280.302 
L 228.336801 309.894 
L 229.030429 293.454 
L 229.724057 309.894 
L 230.417686 296.742 
L 231.111314 300.03 
L 231.804942 306.606 
L 232.49857 290.166 
L 233.885826 296.742 
L 235.273083 277.014 
L 235.966711 316.47 
L 236.660339 270.438 
L 237.353967 293.454 
L 238.047595 309.894 
L 238.741224 286.878 
L 239.434852 273.726 
L 240.12848 286.878 
L 240.822108 273.726 
L 241.515736 267.15 
L 242.209364 290.166 
L 242.902993 273.726 
L 243.596621 286.878 
L 244.290249 267.15 
L 244.983877 283.59 
L 245.677505 263.862 
L 246.371133 300.03 
L 247.064762 270.438 
L 247.75839 283.59 
L 248.452018 283.59 
L 249.145646 303.318 
L 249.839274 277.014 
L 251.226531 277.014 
L 251.920159 296.742 
L 252.613787 270.438 
L 253.307415 300.03 
L 254.001043 277.014 
L 254.694672 296.742 
L 255.3883 277.014 
L 256.081928 267.15 
L 256.775556 273.726 
L 257.469184 260.574 
L 258.856441 267.15 
L 259.550069 267.15 
L 260.243697 260.574 
L 260.937325 270.438 
L 261.630953 257.286 
L 262.324581 260.574 
L 263.01821 277.014 
L 264.405466 270.438 
L 265.099094 253.998 
L 265.792722 250.71 
L 266.486351 267.15 
L 267.179979 263.862 
L 267.873607 263.862 
L 268.567235 280.302 
L 269.260863 257.286 
L 269.954491 260.574 
L 270.64812 250.71 
L 271.341748 250.71 
L 272.035376 244.134 
L 272.729004 267.15 
L 273.422632 267.15 
L 274.11626 253.998 
L 274.809889 247.422 
L 275.503517 247.422 
L 276.197145 240.846 
L 276.890773 244.134 
L 277.584401 267.15 
L 278.278029 253.998 
L 279.665286 260.574 
L 280.358914 273.726 
L 281.052542 257.286 
L 281.74617 237.558 
L 282.439799 247.422 
L 283.133427 253.998 
L 283.827055 263.862 
L 284.520683 230.982 
L 285.214311 237.558 
L 285.907939 247.422 
L 286.601568 221.118 
L 287.295196 240.846 
L 288.682452 247.422 
L 289.37608 237.558 
L 290.069708 234.27 
L 290.763337 244.134 
L 291.456965 240.846 
L 292.150593 234.27 
L 292.844221 240.846 
L 294.231477 234.27 
L 294.925106 240.846 
L 295.618734 224.406 
L 296.312362 221.118 
L 297.00599 237.558 
L 297.699618 237.558 
L 298.393247 234.27 
L 299.086875 237.558 
L 299.780503 230.982 
L 300.474131 253.998 
L 301.167759 214.542 
L 301.861387 230.982 
L 302.555016 240.846 
L 303.248644 244.134 
L 303.942272 211.254 
L 304.6359 227.694 
L 305.329528 227.694 
L 306.023156 230.982 
L 306.716785 237.558 
L 307.410413 237.558 
L 308.104041 221.118 
L 308.797669 234.27 
L 309.491297 224.406 
L 310.184925 237.558 
L 312.26581 227.694 
L 312.959438 230.982 
L 313.653066 221.118 
L 314.346695 227.694 
L 315.040323 224.406 
L 315.733951 214.542 
L 316.427579 230.982 
L 317.121207 217.83 
L 317.814835 217.83 
L 318.508464 224.406 
L 319.202092 211.254 
L 319.89572 221.118 
L 320.589348 214.542 
L 321.282976 230.982 
L 321.976604 214.542 
L 322.670233 211.254 
L 323.363861 227.694 
L 324.751117 214.542 
L 325.444745 204.678 
L 326.138373 224.406 
L 326.832002 204.678 
L 327.52563 217.83 
L 328.219258 217.83 
L 328.912886 204.678 
L 329.606514 211.254 
L 330.300143 214.542 
L 330.993771 221.118 
L 331.687399 207.966 
L 332.381027 221.118 
L 333.768283 207.966 
L 334.461912 207.966 
L 335.849168 221.118 
L 336.542796 207.966 
L 337.930052 207.966 
L 338.623681 217.83 
L 339.317309 204.678 
L 340.010937 207.966 
L 340.704565 217.83 
L 341.398193 198.102 
L 342.091821 204.678 
L 342.78545 217.83 
L 343.479078 207.966 
L 344.866334 201.39 
L 345.559962 211.254 
L 346.25359 211.254 
L 346.947219 201.39 
L 347.640847 207.966 
L 348.334475 198.102 
L 349.028103 211.254 
L 349.721731 198.102 
L 350.41536 201.39 
L 351.108988 211.254 
L 352.496244 198.102 
L 353.189872 194.814 
L 353.8835 198.102 
L 355.270757 211.254 
L 355.964385 201.39 
L 356.658013 201.39 
L 357.351641 194.814 
L 358.045269 198.102 
L 358.738898 207.966 
L 359.432526 198.102 
L 360.126154 191.526 
L 360.819782 204.678 
L 362.900667 194.814 
L 363.594295 204.678 
L 364.287923 191.526 
L 364.981551 191.526 
L 365.675179 207.966 
L 366.368808 194.814 
L 367.062436 184.95 
L 368.449692 198.102 
L 369.14332 207.966 
L 369.836948 207.966 
L 370.530577 194.814 
L 371.917833 194.814 
L 372.611461 181.662 
L 373.305089 194.814 
L 373.998717 184.95 
L 374.692346 188.238 
L 376.079602 188.238 
L 376.77323 201.39 
L 378.160486 188.238 
L 379.547743 194.814 
L 380.241371 184.95 
L 380.934999 188.238 
L 383.015884 188.238 
L 384.40314 181.662 
L 385.790396 194.814 
L 386.484025 184.95 
L 387.177653 184.95 
L 387.871281 181.662 
L 388.564909 181.662 
L 389.258537 184.95 
L 389.952165 184.95 
L 390.645794 181.662 
L 392.03305 188.238 
L 392.726678 181.662 
L 393.420306 178.374 
L 394.113934 178.374 
L 394.807563 184.95 
L 395.501191 188.238 
L 396.194819 181.662 
L 396.888447 184.95 
L 397.582075 175.086 
L 398.275704 181.662 
L 399.66296 181.662 
L 400.356588 188.238 
L 401.050216 181.662 
L 401.743844 188.238 
L 402.437473 184.95 
L 403.131101 178.374 
L 403.824729 181.662 
L 404.518357 178.374 
L 405.211985 181.662 
L 405.905613 178.374 
L 406.599242 178.374 
L 407.29287 188.238 
L 407.986498 171.798 
L 409.373754 171.798 
L 410.067382 181.662 
L 410.761011 175.086 
L 411.454639 171.798 
L 412.148267 175.086 
L 414.229152 175.086 
L 414.92278 168.51 
L 417.003664 178.374 
L 417.697292 171.798 
L 418.390921 168.51 
L 419.084549 175.086 
L 419.778177 171.798 
L 421.165433 171.798 
L 421.859061 168.51 
L 422.55269 175.086 
L 423.246318 168.51 
L 423.939946 165.222 
L 424.633574 171.798 
L 426.714459 171.798 
L 427.408087 175.086 
L 428.101715 168.51 
L 428.795343 171.798 
L 429.488971 168.51 
L 430.876228 168.51 
L 431.569856 165.222 
L 432.263484 168.51 
L 432.957112 168.51 
L 433.65074 171.798 
L 434.344369 165.222 
L 435.037997 175.086 
L 435.731625 161.934 
L 436.425253 168.51 
L 438.506138 168.51 
L 439.199766 165.222 
L 440.587022 165.222 
L 441.28065 161.934 
L 442.667907 168.51 
L 443.361535 165.222 
L 444.055163 168.51 
L 444.748791 165.222 
L 446.829676 165.222 
L 447.523304 158.646 
L 448.216932 165.222 
L 448.91056 161.934 
L 450.991445 161.934 
L 451.685073 165.222 
L 452.378701 165.222 
L 453.072329 168.51 
L 453.765957 155.358 
L 454.459586 161.934 
L 455.153214 158.646 
L 456.54047 158.646 
L 457.927726 165.222 
L 458.621355 158.646 
L 460.008611 158.646 
L 460.702239 161.934 
L 461.395867 155.358 
L 462.089495 158.646 
L 466.251265 158.646 
L 466.944893 155.358 
L 467.638521 158.646 
L 469.025777 158.646 
L 469.719405 155.358 
L 470.413034 155.358 
L 471.106662 152.07 
L 471.80029 155.358 
L 473.881174 155.358 
L 474.574803 152.07 
L 475.268431 155.358 
L 475.962059 152.07 
L 476.655687 155.358 
L 478.042943 155.358 
L 478.736572 152.07 
L 479.4302 152.07 
L 480.123828 158.646 
L 480.817456 158.646 
L 481.511084 152.07 
L 482.204713 155.358 
L 482.898341 152.07 
L 486.366482 152.07 
L 487.06011 148.782 
L 487.753738 148.782 
L 489.140994 155.358 
L 489.834622 145.494 
L 490.528251 152.07 
L 492.609135 152.07 
L 493.302763 148.782 
L 496.770904 148.782 
L 497.464532 155.358 
L 498.158161 148.782 
L 498.851789 152.07 
L 499.545417 152.07 
L 500.932673 145.494 
L 503.013558 145.494 
L 503.707186 148.782 
L 506.481699 148.782 
L 507.175327 145.494 
L 507.868955 145.494 
L 508.562583 142.206 
L 509.949839 148.782 
L 510.643468 145.494 
L 511.337096 145.494 
L 512.030724 142.206 
L 512.724352 145.494 
L 513.41798 145.494 
L 514.111609 142.206 
L 514.805237 142.206 
L 515.498865 148.782 
L 516.192493 142.206 
L 516.886121 145.494 
L 517.579749 142.206 
L 522.435147 142.206 
L 523.128775 138.918 
L 523.822403 148.782 
L 524.516031 142.206 
L 525.903287 142.206 
L 526.596916 145.494 
L 527.290544 138.918 
L 527.984172 138.918 
L 528.6778 142.206 
L 529.371428 138.918 
L 530.758685 138.918 
L 531.452313 142.206 
L 532.145941 135.63 
L 533.533197 142.206 
L 534.226826 142.206 
L 534.920454 138.918 
L 535.614082 138.918 
L 536.30771 142.206 
L 537.694966 142.206 
L 538.388595 135.63 
L 539.082223 135.63 
L 539.775851 138.918 
L 540.469479 138.918 
L 541.163107 135.63 
L 541.856735 138.918 
L 542.550364 138.918 
L 543.243992 132.342 
L 544.631248 138.918 
L 545.324876 138.918 
L 546.018505 135.63 
L 546.712133 138.918 
L 547.405761 138.918 
L 548.099389 135.63 
L 548.793017 135.63 
L 549.486645 132.342 
L 550.180274 135.63 
L 552.261158 135.63 
L 552.954786 138.918 
L 554.342043 132.342 
L 555.035671 132.342 
L 555.729299 135.63 
L 556.422927 132.342 
L 559.19744 132.342 
L 559.891068 135.63 
L 561.278324 129.054 
L 561.971952 132.342 
L 562.665581 132.342 
L 563.359209 135.63 
L 564.052837 132.342 
L 565.440093 132.342 
L 566.133722 129.054 
L 566.82735 132.342 
L 567.520978 132.342 
L 568.214606 129.054 
L 568.908234 129.054 
L 569.601862 132.342 
L 571.682747 132.342 
L 572.376375 129.054 
L 575.150888 129.054 
L 575.844516 125.766 
L 576.538144 129.054 
L 577.231772 125.766 
L 577.9254 129.054 
L 580.699913 129.054 
L 581.393541 125.766 
L 582.780798 125.766 
L 583.474426 129.054 
L 585.55531 129.054 
L 586.248939 122.478 
L 586.942567 125.766 
L 589.023451 125.766 
L 589.717079 132.342 
L 590.410708 125.766 
L 591.104336 129.054 
L 591.797964 125.766 
L 593.18522 125.766 
L 593.878848 129.054 
L 594.572477 125.766 
L 595.266105 125.766 
L 595.959733 129.054 
L 596.653361 125.766 
L 597.346989 125.766 
L 598.040618 122.478 
L 598.734246 125.766 
L 599.427874 125.766 
L 600.121502 122.478 
L 600.81513 125.766 
L 601.508758 125.766 
L 602.202387 122.478 
L 603.589643 122.478 
L 604.283271 125.766 
L 604.976899 122.478 
L 605.670527 122.478 
L 606.364156 119.19 
L 607.057784 122.478 
L 608.44504 122.478 
L 609.138668 125.766 
L 609.832296 122.478 
L 615.381322 122.478 
L 616.07495 115.902 
L 616.768578 122.478 
L 617.462206 119.19 
L 618.155835 119.19 
L 618.849463 122.478 
L 619.543091 119.19 
L 620.236719 122.478 
L 620.930347 122.478 
L 621.623975 119.19 
L 622.317604 122.478 
L 623.011232 119.19 
L 625.785744 119.19 
L 626.479373 122.478 
L 627.866629 115.902 
L 628.560257 115.902 
L 629.253885 119.19 
L 634.109283 119.19 
L 635.496539 112.614 
L 636.190167 112.614 
L 636.883795 115.902 
L 642.432821 115.902 
L 643.126449 112.614 
L 643.820077 115.902 
L 644.513705 115.902 
L 645.207333 112.614 
L 645.900962 115.902 
L 647.288218 115.902 
L 647.981846 112.614 
L 650.062731 112.614 
L 650.756359 115.902 
L 651.449987 112.614 
L 652.837243 112.614 
L 653.530871 115.902 
L 654.2245 112.614 
L 654.918128 112.614 
L 655.611756 109.326 
L 656.305384 109.326 
L 656.999012 112.614 
L 657.69264 112.614 
L 658.386269 109.326 
L 659.079897 112.614 
L 659.773525 109.326 
L 661.160781 109.326 
L 661.85441 112.614 
L 662.548038 109.326 
L 663.241666 112.614 
L 664.628922 112.614 
L 665.32255 109.326 
L 666.016179 112.614 
L 666.709807 112.614 
L 667.403435 109.326 
L 674.339717 109.326 
L 675.033345 112.614 
L 675.726973 109.326 
L 677.114229 109.326 
L 677.807857 106.038 
L 678.501486 109.326 
L 679.888742 102.75 
L 680.58237 106.038 
L 681.275998 106.038 
L 681.969627 109.326 
L 682.663255 106.038 
L 686.825024 106.038 
L 687.518652 102.75 
L 688.21228 106.038 
L 692.374049 106.038 
L 693.067677 109.326 
L 693.761305 102.75 
L 694.454934 102.75 
L 695.148562 106.038 
L 695.84219 106.038 
L 696.535818 102.75 
L 697.229446 102.75 
L 697.923075 106.038 
L 698.616703 102.75 
L 699.310331 106.038 
L 700.003959 99.462 
L 700.697587 102.75 
L 705.552984 102.75 
L 706.246613 99.462 
L 707.633869 99.462 
L 708.327497 102.75 
L 709.021125 99.462 
L 709.714753 102.75 
L 713.876523 102.75 
L 714.570151 99.462 
L 715.263779 99.462 
L 715.957407 102.75 
L 716.651035 99.462 
L 717.344663 102.75 
L 718.038292 99.462 
L 719.425548 99.462 
L 720.119176 102.75 
L 720.812804 102.75 
L 721.506432 99.462 
L 722.200061 99.462 
L 722.893689 102.75 
L 723.587317 99.462 
L 724.974573 99.462 
L 725.668201 96.174 
L 726.36183 99.462 
L 727.749086 99.462 
L 728.442714 96.174 
L 730.523599 96.174 
L 731.217227 99.462 
L 731.910855 96.174 
L 734.685368 96.174 
L 735.378996 99.462 
L 736.072624 96.174 
L 737.45988 96.174 
L 738.153509 99.462 
L 738.847137 96.174 
L 741.621649 96.174 
L 742.315278 92.886 
L 743.008906 96.174 
L 749.251559 96.174 
L 749.945188 89.598 
L 750.638816 96.174 
L 751.332444 96.174 
L 752.026072 92.886 
L 753.413328 92.886 
L 754.106957 96.174 
L 754.800585 92.886 
L 765.205007 92.886 
L 765.898636 89.598 
L 766.592264 92.886 
L 767.97952 92.886 
L 768.673148 89.598 
L 773.528545 89.598 
L 774.222174 92.886 
L 774.915802 89.598 
L 777.690314 89.598 
L 778.383943 86.31 
L 779.077571 89.598 
L 781.158455 89.598 
L 781.852084 86.31 
L 782.545712 89.598 
L 783.932968 89.598 
L 784.626596 86.31 
L 785.320224 89.598 
L 787.401109 89.598 
L 788.094737 86.31 
L 788.788365 89.598 
L 789.481993 86.31 
L 790.175622 89.598 
L 791.562878 89.598 
L 792.256506 86.31 
L 792.950134 89.598 
L 793.643762 86.31 
L 794.337391 86.31 
L 795.031019 89.598 
L 795.724647 86.31 
L 800.580044 86.31 
L 801.273672 83.022 
L 801.967301 83.022 
L 802.660929 86.31 
L 805.435441 86.31 
L 806.12907 83.022 
L 806.822698 83.022 
L 807.516326 86.31 
L 808.903582 86.31 
L 809.59721 83.022 
L 810.290839 83.022 
L 810.984467 86.31 
L 811.678095 83.022 
L 812.371723 86.31 
L 813.065351 83.022 
L 813.75898 86.31 
L 814.452608 83.022 
L 819.308005 83.022 
L 820.001633 79.734 
L 820.695261 83.022 
L 827.631543 83.022 
L 828.325171 79.734 
L 829.018799 79.734 
L 829.712428 83.022 
L 830.406056 79.734 
L 831.099684 83.022 
L 831.793312 83.022 
L 832.48694 79.734 
L 834.567825 79.734 
L 835.261453 83.022 
L 835.955081 79.734 
L 838.035966 79.734 
L 838.729594 76.446 
L 839.423222 79.734 
L 840.11685 79.734 
L 840.810478 76.446 
L 842.891363 76.446 
L 843.584991 79.734 
L 845.665876 79.734 
L 846.359504 76.446 
L 847.053132 76.446 
L 847.74676 79.734 
L 848.440388 76.446 
L 849.134016 76.446 
L 849.827645 79.734 
L 850.521273 76.446 
L 850.521273 76.446 
" style="fill:none;stroke:#ff7f0e;stroke-linecap:square;stroke-width:1.5;"/>
   </g>
   <g id="line2d_18">
    <path clip-path="url(#pd66b9b72ce)" d="M 157.586727 293.454 
L 158.280355 280.302 
L 158.973984 290.166 
L 159.667612 290.166 
L 160.36124 296.742 
L 161.054868 296.742 
L 161.748496 273.726 
L 162.442124 286.878 
L 163.135753 293.454 
L 163.829381 280.302 
L 164.523009 293.454 
L 165.216637 283.59 
L 165.910265 286.878 
L 166.603894 277.014 
L 167.297522 286.878 
L 167.99115 277.014 
L 168.684778 283.59 
L 169.378406 277.014 
L 170.072034 273.726 
L 170.765663 277.014 
L 171.459291 277.014 
L 172.152919 283.59 
L 172.846547 286.878 
L 173.540175 267.15 
L 174.233803 280.302 
L 174.927432 273.726 
L 177.008316 283.59 
L 177.701944 260.574 
L 178.395572 290.166 
L 179.782829 270.438 
L 180.476457 270.438 
L 181.170085 260.574 
L 181.863713 280.302 
L 182.557342 273.726 
L 183.25097 277.014 
L 183.944598 267.15 
L 184.638226 277.014 
L 185.331854 283.59 
L 186.025482 270.438 
L 186.719111 280.302 
L 187.412739 270.438 
L 188.106367 267.15 
L 188.799995 253.998 
L 189.493623 257.286 
L 190.187251 273.726 
L 190.88088 267.15 
L 191.574508 277.014 
L 192.268136 260.574 
L 192.961764 250.71 
L 193.655392 263.862 
L 194.34902 257.286 
L 195.042649 260.574 
L 195.736277 250.71 
L 196.429905 260.574 
L 197.123533 273.726 
L 197.817161 250.71 
L 198.51079 263.862 
L 199.204418 260.574 
L 199.898046 247.422 
L 200.591674 240.846 
L 201.285302 260.574 
L 201.97893 250.71 
L 202.672559 257.286 
L 203.366187 247.422 
L 204.059815 270.438 
L 204.753443 247.422 
L 205.447071 253.998 
L 206.140699 244.134 
L 206.834328 260.574 
L 207.527956 267.15 
L 208.221584 253.998 
L 208.915212 250.71 
L 209.60884 244.134 
L 210.302468 257.286 
L 210.996097 253.998 
L 211.689725 240.846 
L 212.383353 250.71 
L 215.851494 250.71 
L 216.545122 237.558 
L 217.23875 247.422 
L 219.319635 237.558 
L 220.013263 253.998 
L 220.706891 250.71 
L 221.400519 240.846 
L 222.094147 250.71 
L 222.787776 247.422 
L 223.481404 237.558 
L 224.175032 257.286 
L 224.86866 244.134 
L 225.562288 263.862 
L 226.255916 247.422 
L 227.643173 234.27 
L 228.336801 240.846 
L 229.030429 244.134 
L 229.724057 244.134 
L 230.417686 240.846 
L 231.111314 234.27 
L 232.49857 227.694 
L 233.192198 234.27 
L 233.885826 237.558 
L 234.579455 253.998 
L 235.273083 253.998 
L 235.966711 237.558 
L 236.660339 247.422 
L 237.353967 234.27 
L 238.741224 247.422 
L 239.434852 230.982 
L 240.12848 230.982 
L 240.822108 240.846 
L 241.515736 240.846 
L 242.209364 234.27 
L 242.902993 224.406 
L 243.596621 237.558 
L 244.290249 224.406 
L 244.983877 244.134 
L 246.371133 237.558 
L 247.064762 230.982 
L 247.75839 244.134 
L 248.452018 227.694 
L 249.145646 240.846 
L 249.839274 221.118 
L 250.532903 237.558 
L 251.920159 230.982 
L 252.613787 230.982 
L 254.001043 224.406 
L 254.694672 244.134 
L 255.3883 224.406 
L 256.081928 230.982 
L 256.775556 247.422 
L 257.469184 221.118 
L 258.162812 234.27 
L 259.550069 221.118 
L 260.243697 230.982 
L 260.937325 224.406 
L 261.630953 227.694 
L 262.324581 237.558 
L 263.01821 217.83 
L 263.711838 227.694 
L 264.405466 234.27 
L 265.099094 221.118 
L 265.792722 227.694 
L 266.486351 217.83 
L 267.179979 237.558 
L 267.873607 234.27 
L 268.567235 224.406 
L 269.260863 224.406 
L 269.954491 227.694 
L 271.341748 221.118 
L 272.729004 227.694 
L 273.422632 227.694 
L 274.11626 224.406 
L 274.809889 211.254 
L 275.503517 227.694 
L 276.197145 214.542 
L 276.890773 207.966 
L 277.584401 217.83 
L 278.278029 211.254 
L 278.971658 221.118 
L 279.665286 214.542 
L 280.358914 221.118 
L 281.052542 217.83 
L 281.74617 221.118 
L 282.439799 217.83 
L 283.133427 224.406 
L 283.827055 211.254 
L 284.520683 224.406 
L 285.214311 221.118 
L 285.907939 214.542 
L 286.601568 211.254 
L 287.295196 224.406 
L 287.988824 217.83 
L 288.682452 217.83 
L 289.37608 207.966 
L 290.763337 221.118 
L 291.456965 221.118 
L 292.150593 217.83 
L 292.844221 211.254 
L 293.537849 217.83 
L 294.231477 217.83 
L 294.925106 214.542 
L 295.618734 214.542 
L 296.312362 217.83 
L 297.00599 224.406 
L 297.699618 221.118 
L 298.393247 204.678 
L 299.086875 214.542 
L 299.780503 207.966 
L 300.474131 198.102 
L 301.167759 221.118 
L 301.861387 207.966 
L 302.555016 204.678 
L 303.248644 198.102 
L 303.942272 214.542 
L 304.6359 211.254 
L 305.329528 211.254 
L 306.023156 214.542 
L 306.716785 201.39 
L 307.410413 201.39 
L 308.104041 207.966 
L 308.797669 201.39 
L 309.491297 198.102 
L 310.184925 211.254 
L 310.878554 204.678 
L 311.572182 207.966 
L 312.26581 221.118 
L 312.959438 204.678 
L 313.653066 204.678 
L 314.346695 214.542 
L 315.040323 198.102 
L 315.733951 191.526 
L 317.121207 204.678 
L 317.814835 207.966 
L 319.202092 194.814 
L 319.89572 204.678 
L 320.589348 204.678 
L 321.282976 207.966 
L 321.976604 201.39 
L 322.670233 204.678 
L 323.363861 198.102 
L 324.057489 211.254 
L 324.751117 198.102 
L 325.444745 204.678 
L 326.138373 204.678 
L 326.832002 188.238 
L 327.52563 207.966 
L 328.219258 201.39 
L 328.912886 211.254 
L 329.606514 217.83 
L 330.300143 201.39 
L 330.993771 207.966 
L 332.381027 201.39 
L 333.074655 204.678 
L 333.768283 188.238 
L 334.461912 191.526 
L 335.15554 207.966 
L 335.849168 194.814 
L 336.542796 188.238 
L 337.236424 198.102 
L 337.930052 201.39 
L 338.623681 188.238 
L 339.317309 188.238 
L 340.010937 194.814 
L 340.704565 191.526 
L 341.398193 194.814 
L 342.091821 194.814 
L 342.78545 188.238 
L 343.479078 191.526 
L 344.172706 181.662 
L 344.866334 181.662 
L 345.559962 198.102 
L 346.25359 184.95 
L 346.947219 194.814 
L 347.640847 194.814 
L 348.334475 184.95 
L 349.028103 188.238 
L 349.721731 184.95 
L 350.41536 194.814 
L 351.108988 201.39 
L 352.496244 188.238 
L 353.189872 194.814 
L 353.8835 188.238 
L 354.577129 198.102 
L 355.270757 194.814 
L 355.964385 181.662 
L 358.045269 191.526 
L 358.738898 184.95 
L 360.126154 184.95 
L 360.819782 188.238 
L 361.51341 198.102 
L 362.207038 191.526 
L 363.594295 184.95 
L 364.287923 184.95 
L 364.981551 188.238 
L 365.675179 184.95 
L 366.368808 188.238 
L 367.062436 188.238 
L 367.756064 181.662 
L 368.449692 188.238 
L 369.14332 184.95 
L 369.836948 178.374 
L 370.530577 188.238 
L 371.224205 178.374 
L 371.917833 178.374 
L 372.611461 184.95 
L 373.305089 181.662 
L 373.998717 175.086 
L 374.692346 184.95 
L 375.385974 178.374 
L 376.079602 175.086 
L 377.466858 188.238 
L 378.160486 181.662 
L 380.241371 181.662 
L 380.934999 171.798 
L 381.628627 184.95 
L 382.322256 171.798 
L 383.709512 184.95 
L 384.40314 181.662 
L 385.096768 184.95 
L 385.790396 175.086 
L 386.484025 175.086 
L 387.177653 181.662 
L 387.871281 181.662 
L 388.564909 178.374 
L 389.258537 178.374 
L 389.952165 175.086 
L 390.645794 181.662 
L 392.03305 168.51 
L 392.726678 175.086 
L 394.113934 175.086 
L 394.807563 178.374 
L 395.501191 171.798 
L 396.194819 171.798 
L 396.888447 178.374 
L 397.582075 175.086 
L 398.275704 175.086 
L 398.969332 168.51 
L 399.66296 175.086 
L 400.356588 171.798 
L 401.050216 165.222 
L 401.743844 175.086 
L 402.437473 171.798 
L 403.131101 175.086 
L 404.518357 168.51 
L 405.211985 178.374 
L 405.905613 171.798 
L 406.599242 175.086 
L 407.29287 168.51 
L 407.986498 175.086 
L 408.680126 178.374 
L 409.373754 171.798 
L 410.067382 175.086 
L 410.761011 175.086 
L 411.454639 171.798 
L 412.148267 165.222 
L 412.841895 171.798 
L 413.535523 175.086 
L 414.92278 168.51 
L 415.616408 175.086 
L 416.310036 175.086 
L 417.003664 165.222 
L 417.697292 171.798 
L 418.390921 165.222 
L 419.084549 165.222 
L 419.778177 175.086 
L 420.471805 168.51 
L 421.165433 171.798 
L 421.859061 171.798 
L 422.55269 161.934 
L 423.246318 165.222 
L 423.939946 161.934 
L 424.633574 175.086 
L 425.327202 161.934 
L 426.02083 161.934 
L 426.714459 168.51 
L 427.408087 155.358 
L 428.101715 165.222 
L 428.795343 168.51 
L 429.488971 168.51 
L 430.1826 161.934 
L 431.569856 168.51 
L 432.263484 161.934 
L 432.957112 168.51 
L 433.65074 161.934 
L 434.344369 158.646 
L 435.037997 165.222 
L 435.731625 168.51 
L 436.425253 158.646 
L 437.118881 161.934 
L 437.812509 168.51 
L 439.199766 161.934 
L 439.893394 155.358 
L 440.587022 158.646 
L 441.28065 158.646 
L 441.974278 161.934 
L 442.667907 161.934 
L 443.361535 158.646 
L 444.055163 158.646 
L 444.748791 161.934 
L 445.442419 158.646 
L 446.136048 168.51 
L 446.829676 165.222 
L 447.523304 158.646 
L 448.216932 158.646 
L 448.91056 155.358 
L 449.604188 155.358 
L 450.297817 158.646 
L 450.991445 158.646 
L 451.685073 155.358 
L 452.378701 158.646 
L 453.072329 168.51 
L 453.765957 152.07 
L 454.459586 158.646 
L 455.153214 152.07 
L 455.846842 161.934 
L 457.234098 155.358 
L 457.927726 161.934 
L 458.621355 148.782 
L 459.314983 158.646 
L 460.008611 161.934 
L 460.702239 158.646 
L 461.395867 158.646 
L 462.089495 155.358 
L 462.783124 155.358 
L 463.476752 142.206 
L 464.17038 158.646 
L 464.864008 152.07 
L 466.944893 152.07 
L 467.638521 155.358 
L 468.332149 152.07 
L 469.025777 155.358 
L 469.719405 155.358 
L 470.413034 148.782 
L 471.80029 161.934 
L 472.493918 152.07 
L 473.187546 165.222 
L 474.574803 152.07 
L 475.268431 158.646 
L 475.962059 145.494 
L 476.655687 155.358 
L 477.349315 152.07 
L 478.042943 152.07 
L 478.736572 148.782 
L 479.4302 152.07 
L 480.817456 145.494 
L 481.511084 152.07 
L 482.204713 148.782 
L 482.898341 148.782 
L 483.591969 155.358 
L 484.285597 152.07 
L 484.979225 152.07 
L 485.672853 148.782 
L 486.366482 152.07 
L 487.06011 145.494 
L 487.753738 152.07 
L 488.447366 148.782 
L 489.140994 142.206 
L 489.834622 148.782 
L 490.528251 148.782 
L 491.221879 145.494 
L 491.915507 148.782 
L 492.609135 148.782 
L 493.302763 145.494 
L 493.996391 155.358 
L 494.69002 148.782 
L 495.383648 148.782 
L 496.077276 145.494 
L 496.770904 145.494 
L 497.464532 138.918 
L 498.158161 145.494 
L 498.851789 148.782 
L 499.545417 148.782 
L 500.932673 142.206 
L 501.626301 142.206 
L 502.31993 148.782 
L 503.013558 142.206 
L 503.707186 145.494 
L 504.400814 152.07 
L 505.094442 142.206 
L 505.78807 148.782 
L 506.481699 148.782 
L 507.175327 142.206 
L 507.868955 138.918 
L 508.562583 145.494 
L 509.256211 148.782 
L 509.949839 138.918 
L 510.643468 145.494 
L 511.337096 148.782 
L 512.030724 145.494 
L 512.724352 135.63 
L 513.41798 145.494 
L 514.111609 142.206 
L 514.805237 145.494 
L 515.498865 145.494 
L 516.192493 138.918 
L 516.886121 142.206 
L 518.967006 142.206 
L 519.660634 135.63 
L 520.354262 145.494 
L 521.04789 138.918 
L 521.741518 145.494 
L 522.435147 145.494 
L 523.128775 142.206 
L 523.822403 152.07 
L 524.516031 138.918 
L 525.209659 138.918 
L 525.903287 142.206 
L 527.290544 142.206 
L 527.984172 135.63 
L 528.6778 142.206 
L 529.371428 132.342 
L 530.065057 138.918 
L 530.758685 142.206 
L 531.452313 138.918 
L 533.533197 138.918 
L 534.226826 142.206 
L 534.920454 142.206 
L 535.614082 132.342 
L 537.001338 138.918 
L 537.694966 138.918 
L 538.388595 145.494 
L 539.082223 135.63 
L 539.775851 129.054 
L 540.469479 142.206 
L 541.163107 132.342 
L 542.550364 138.918 
L 543.243992 135.63 
L 544.631248 135.63 
L 545.324876 129.054 
L 546.018505 138.918 
L 546.712133 142.206 
L 547.405761 135.63 
L 548.099389 138.918 
L 548.793017 135.63 
L 549.486645 135.63 
L 550.180274 132.342 
L 551.56753 138.918 
L 552.261158 138.918 
L 552.954786 135.63 
L 553.648414 135.63 
L 554.342043 129.054 
L 555.035671 125.766 
L 556.422927 138.918 
L 557.116555 135.63 
L 557.810183 129.054 
L 558.503812 132.342 
L 559.19744 138.918 
L 559.891068 132.342 
L 560.584696 129.054 
L 561.278324 132.342 
L 561.971952 132.342 
L 562.665581 129.054 
L 563.359209 132.342 
L 564.746465 125.766 
L 565.440093 135.63 
L 566.133722 129.054 
L 566.82735 129.054 
L 568.214606 135.63 
L 569.601862 129.054 
L 570.295491 129.054 
L 570.989119 132.342 
L 571.682747 129.054 
L 572.376375 129.054 
L 573.070003 125.766 
L 573.763631 129.054 
L 574.45726 125.766 
L 575.150888 132.342 
L 575.844516 122.478 
L 576.538144 132.342 
L 577.231772 122.478 
L 577.9254 129.054 
L 579.312657 122.478 
L 580.006285 132.342 
L 580.699913 129.054 
L 581.393541 129.054 
L 582.08717 132.342 
L 582.780798 129.054 
L 583.474426 119.19 
L 584.168054 125.766 
L 584.861682 129.054 
L 585.55531 122.478 
L 586.248939 132.342 
L 586.942567 122.478 
L 588.329823 129.054 
L 589.023451 125.766 
L 589.717079 119.19 
L 590.410708 132.342 
L 591.104336 125.766 
L 591.797964 125.766 
L 593.18522 119.19 
L 593.878848 129.054 
L 595.959733 119.19 
L 596.653361 125.766 
L 597.346989 129.054 
L 598.040618 122.478 
L 598.734246 129.054 
L 599.427874 125.766 
L 600.121502 125.766 
L 600.81513 119.19 
L 601.508758 125.766 
L 602.202387 125.766 
L 602.896015 119.19 
L 603.589643 119.19 
L 604.283271 122.478 
L 606.364156 122.478 
L 607.057784 115.902 
L 608.44504 122.478 
L 609.138668 122.478 
L 609.832296 119.19 
L 610.525925 125.766 
L 611.219553 122.478 
L 611.913181 122.478 
L 613.300437 115.902 
L 613.994066 122.478 
L 615.381322 122.478 
L 616.768578 115.902 
L 617.462206 115.902 
L 618.155835 122.478 
L 618.849463 119.19 
L 619.543091 122.478 
L 620.236719 115.902 
L 621.623975 122.478 
L 622.317604 115.902 
L 623.011232 119.19 
L 623.70486 125.766 
L 624.398488 119.19 
L 625.092116 119.19 
L 625.785744 115.902 
L 626.479373 115.902 
L 627.173001 119.19 
L 627.866629 115.902 
L 628.560257 119.19 
L 629.253885 119.19 
L 629.947514 112.614 
L 630.641142 119.19 
L 631.33477 115.902 
L 632.028398 115.902 
L 632.722026 119.19 
L 633.415654 112.614 
L 634.109283 115.902 
L 636.190167 115.902 
L 637.577423 109.326 
L 638.271052 112.614 
L 638.96468 112.614 
L 639.658308 109.326 
L 640.351936 112.614 
L 641.045564 112.614 
L 641.739192 119.19 
L 642.432821 112.614 
L 643.126449 112.614 
L 644.513705 119.19 
L 645.207333 115.902 
L 645.900962 109.326 
L 646.59459 115.902 
L 647.981846 109.326 
L 648.675474 119.19 
L 649.369102 109.326 
L 650.062731 112.614 
L 651.449987 112.614 
L 652.143615 109.326 
L 652.837243 115.902 
L 654.2245 109.326 
L 654.918128 115.902 
L 655.611756 115.902 
L 656.305384 112.614 
L 656.999012 115.902 
L 658.386269 109.326 
L 659.079897 112.614 
L 659.773525 112.614 
L 660.467153 106.038 
L 661.85441 112.614 
L 662.548038 109.326 
L 663.241666 112.614 
L 663.935294 109.326 
L 664.628922 112.614 
L 665.32255 106.038 
L 666.016179 109.326 
L 666.709807 106.038 
L 667.403435 112.614 
L 668.097063 109.326 
L 669.484319 115.902 
L 670.177948 109.326 
L 671.565204 109.326 
L 672.258832 106.038 
L 672.95246 112.614 
L 673.646088 102.75 
L 674.339717 106.038 
L 677.807857 106.038 
L 678.501486 109.326 
L 679.888742 109.326 
L 680.58237 106.038 
L 681.969627 106.038 
L 683.356883 112.614 
L 684.050511 106.038 
L 684.744139 106.038 
L 685.437767 102.75 
L 686.131396 102.75 
L 686.825024 106.038 
L 687.518652 102.75 
L 688.905908 102.75 
L 690.293165 109.326 
L 690.986793 99.462 
L 691.680421 99.462 
L 692.374049 102.75 
L 693.067677 102.75 
L 693.761305 109.326 
L 694.454934 106.038 
L 695.148562 109.326 
L 697.229446 99.462 
L 698.616703 106.038 
L 700.003959 106.038 
L 700.697587 102.75 
L 701.391215 109.326 
L 702.084844 102.75 
L 702.778472 99.462 
L 703.4721 99.462 
L 704.165728 102.75 
L 704.859356 99.462 
L 709.021125 99.462 
L 709.714753 106.038 
L 711.10201 99.462 
L 711.795638 99.462 
L 712.489266 102.75 
L 713.182894 96.174 
L 714.570151 102.75 
L 715.263779 96.174 
L 715.957407 99.462 
L 717.344663 99.462 
L 718.038292 106.038 
L 718.73192 99.462 
L 720.812804 99.462 
L 721.506432 106.038 
L 722.200061 92.886 
L 723.587317 99.462 
L 724.280945 92.886 
L 724.974573 99.462 
L 725.668201 99.462 
L 726.36183 96.174 
L 727.055458 102.75 
L 727.749086 96.174 
L 728.442714 96.174 
L 729.136342 99.462 
L 729.829971 99.462 
L 730.523599 89.598 
L 731.217227 92.886 
L 732.604483 92.886 
L 733.99174 99.462 
L 734.685368 99.462 
L 735.378996 92.886 
L 736.072624 92.886 
L 736.766252 99.462 
L 737.45988 92.886 
L 738.153509 99.462 
L 738.847137 102.75 
L 739.540765 96.174 
L 740.234393 99.462 
L 740.928021 92.886 
L 741.621649 89.598 
L 742.315278 96.174 
L 743.008906 92.886 
L 745.08979 92.886 
L 746.477047 99.462 
L 747.170675 96.174 
L 747.864303 99.462 
L 748.557931 92.886 
L 749.251559 96.174 
L 749.945188 89.598 
L 750.638816 92.886 
L 752.026072 92.886 
L 752.7197 89.598 
L 753.413328 96.174 
L 754.106957 92.886 
L 755.494213 92.886 
L 756.187841 96.174 
L 756.881469 89.598 
L 757.575097 96.174 
L 758.268726 92.886 
L 758.962354 92.886 
L 759.655982 89.598 
L 760.34961 92.886 
L 761.043238 89.598 
L 762.430495 89.598 
L 763.124123 92.886 
L 765.898636 92.886 
L 766.592264 89.598 
L 767.285892 92.886 
L 768.673148 86.31 
L 769.366776 89.598 
L 770.754033 89.598 
L 771.447661 92.886 
L 772.141289 92.886 
L 772.834917 86.31 
L 773.528545 89.598 
L 774.222174 86.31 
L 776.303058 86.31 
L 776.996686 89.598 
L 779.077571 89.598 
L 779.771199 86.31 
L 780.464827 86.31 
L 781.158455 89.598 
L 781.852084 89.598 
L 782.545712 86.31 
L 783.23934 92.886 
L 783.932968 86.31 
L 784.626596 89.598 
L 785.320224 89.598 
L 786.013853 86.31 
L 786.707481 89.598 
L 787.401109 86.31 
L 788.094737 86.31 
L 788.788365 89.598 
L 789.481993 83.022 
L 790.175622 86.31 
L 790.86925 86.31 
L 791.562878 89.598 
L 792.256506 89.598 
L 792.950134 86.31 
L 793.643762 89.598 
L 794.337391 86.31 
L 795.031019 89.598 
L 795.724647 89.598 
L 796.418275 83.022 
L 797.111903 89.598 
L 798.49916 83.022 
L 799.886416 89.598 
L 800.580044 83.022 
L 801.273672 86.31 
L 801.967301 83.022 
L 802.660929 86.31 
L 803.354557 83.022 
L 806.12907 83.022 
L 806.822698 86.31 
L 807.516326 83.022 
L 808.209954 83.022 
L 808.903582 79.734 
L 810.290839 86.31 
L 810.984467 76.446 
L 811.678095 86.31 
L 812.371723 83.022 
L 813.065351 83.022 
L 813.75898 79.734 
L 814.452608 83.022 
L 816.533492 83.022 
L 817.22712 79.734 
L 817.920749 86.31 
L 818.614377 79.734 
L 819.308005 83.022 
L 820.001633 79.734 
L 820.695261 83.022 
L 821.388889 79.734 
L 822.776146 79.734 
L 823.469774 86.31 
L 824.85703 79.734 
L 827.631543 79.734 
L 828.325171 76.446 
L 829.018799 76.446 
L 830.406056 83.022 
L 831.099684 79.734 
L 833.180568 79.734 
L 834.567825 86.31 
L 835.261453 76.446 
L 835.955081 79.734 
L 839.423222 79.734 
L 840.11685 76.446 
L 840.810478 79.734 
L 841.504106 76.446 
L 842.197735 79.734 
L 842.891363 76.446 
L 843.584991 76.446 
L 844.278619 83.022 
L 844.972247 79.734 
L 845.665876 79.734 
L 846.359504 83.022 
L 847.053132 76.446 
L 847.74676 76.446 
L 848.440388 79.734 
L 849.134016 79.734 
L 849.827645 76.446 
L 850.521273 76.446 
L 850.521273 76.446 
" style="fill:none;stroke:#2ca02c;stroke-linecap:square;stroke-width:1.5;"/>
   </g>
   <g id="patch_3">
    <path d="M 122.94 438.948 
L 122.94 59.184 
" style="fill:none;stroke:#000000;stroke-linecap:square;stroke-linejoin:miter;stroke-width:0.8;"/>
   </g>
   <g id="patch_4">
    <path d="M 885.168 438.948 
L 885.168 59.184 
" style="fill:none;stroke:#000000;stroke-linecap:square;stroke-linejoin:miter;stroke-width:0.8;"/>
   </g>
   <g id="patch_5">
    <path d="M 122.94 438.948 
L 885.168 438.948 
" style="fill:none;stroke:#000000;stroke-linecap:square;stroke-linejoin:miter;stroke-width:0.8;"/>
   </g>
   <g id="patch_6">
    <path d="M 122.94 59.184 
L 885.168 59.184 
" style="fill:none;stroke:#000000;stroke-linecap:square;stroke-linejoin:miter;stroke-width:0.8;"/>
   </g>
   <g id="text_18">
    <!-- f-I curve under different noise conditions -->
    <defs>
     <path d="M 4.890625 31.390625 
L 31.203125 31.390625 
L 31.203125 23.390625 
L 4.890625 23.390625 
z
" id="DejaVuSans-2d"/>
     <path d="M 48.78125 52.59375 
L 48.78125 44.1875 
Q 44.96875 46.296875 41.140625 47.34375 
Q 37.3125 48.390625 33.40625 48.390625 
Q 24.65625 48.390625 19.8125 42.84375 
Q 14.984375 37.3125 14.984375 27.296875 
Q 14.984375 17.28125 19.8125 11.734375 
Q 24.65625 6.203125 33.40625 6.203125 
Q 37.3125 6.203125 41.140625 7.25 
Q 44.96875 8.296875 48.78125 10.40625 
L 48.78125 2.09375 
Q 45.015625 0.34375 40.984375 -0.53125 
Q 36.96875 -1.421875 32.421875 -1.421875 
Q 20.0625 -1.421875 12.78125 6.34375 
Q 5.515625 14.109375 5.515625 27.296875 
Q 5.515625 40.671875 12.859375 48.328125 
Q 20.21875 56 33.015625 56 
Q 37.15625 56 41.109375 55.140625 
Q 45.0625 54.296875 48.78125 52.59375 
z
" id="DejaVuSans-63"/>
     <path d="M 2.984375 54.6875 
L 12.5 54.6875 
L 29.59375 8.796875 
L 46.6875 54.6875 
L 56.203125 54.6875 
L 35.6875 0 
L 23.484375 0 
z
" id="DejaVuSans-76"/>
     <path d="M 45.40625 46.390625 
L 45.40625 75.984375 
L 54.390625 75.984375 
L 54.390625 0 
L 45.40625 0 
L 45.40625 8.203125 
Q 42.578125 3.328125 38.25 0.953125 
Q 33.9375 -1.421875 27.875 -1.421875 
Q 17.96875 -1.421875 11.734375 6.484375 
Q 5.515625 14.40625 5.515625 27.296875 
Q 5.515625 40.1875 11.734375 48.09375 
Q 17.96875 56 27.875 56 
Q 33.9375 56 38.25 53.625 
Q 42.578125 51.265625 45.40625 46.390625 
z
M 14.796875 27.296875 
Q 14.796875 17.390625 18.875 11.75 
Q 22.953125 6.109375 30.078125 6.109375 
Q 37.203125 6.109375 41.296875 11.75 
Q 45.40625 17.390625 45.40625 27.296875 
Q 45.40625 37.203125 41.296875 42.84375 
Q 37.203125 48.484375 30.078125 48.484375 
Q 22.953125 48.484375 18.875 42.84375 
Q 14.796875 37.203125 14.796875 27.296875 
z
" id="DejaVuSans-64"/>
     <path d="M 30.609375 48.390625 
Q 23.390625 48.390625 19.1875 42.75 
Q 14.984375 37.109375 14.984375 27.296875 
Q 14.984375 17.484375 19.15625 11.84375 
Q 23.34375 6.203125 30.609375 6.203125 
Q 37.796875 6.203125 41.984375 11.859375 
Q 46.1875 17.53125 46.1875 27.296875 
Q 46.1875 37.015625 41.984375 42.703125 
Q 37.796875 48.390625 30.609375 48.390625 
z
M 30.609375 56 
Q 42.328125 56 49.015625 48.375 
Q 55.71875 40.765625 55.71875 27.296875 
Q 55.71875 13.875 49.015625 6.21875 
Q 42.328125 -1.421875 30.609375 -1.421875 
Q 18.84375 -1.421875 12.171875 6.21875 
Q 5.515625 13.875 5.515625 27.296875 
Q 5.515625 40.765625 12.171875 48.375 
Q 18.84375 56 30.609375 56 
z
" id="DejaVuSans-6f"/>
     <path d="M 44.28125 53.078125 
L 44.28125 44.578125 
Q 40.484375 46.53125 36.375 47.5 
Q 32.28125 48.484375 27.875 48.484375 
Q 21.1875 48.484375 17.84375 46.4375 
Q 14.5 44.390625 14.5 40.28125 
Q 14.5 37.15625 16.890625 35.375 
Q 19.28125 33.59375 26.515625 31.984375 
L 29.59375 31.296875 
Q 39.15625 29.25 43.1875 25.515625 
Q 47.21875 21.78125 47.21875 15.09375 
Q 47.21875 7.46875 41.1875 3.015625 
Q 35.15625 -1.421875 24.609375 -1.421875 
Q 20.21875 -1.421875 15.453125 -0.5625 
Q 10.6875 0.296875 5.421875 2 
L 5.421875 11.28125 
Q 10.40625 8.6875 15.234375 7.390625 
Q 20.0625 6.109375 24.8125 6.109375 
Q 31.15625 6.109375 34.5625 8.28125 
Q 37.984375 10.453125 37.984375 14.40625 
Q 37.984375 18.0625 35.515625 20.015625 
Q 33.0625 21.96875 24.703125 23.78125 
L 21.578125 24.515625 
Q 13.234375 26.265625 9.515625 29.90625 
Q 5.8125 33.546875 5.8125 39.890625 
Q 5.8125 47.609375 11.28125 51.796875 
Q 16.75 56 26.8125 56 
Q 31.78125 56 36.171875 55.265625 
Q 40.578125 54.546875 44.28125 53.078125 
z
" id="DejaVuSans-73"/>
    </defs>
    <g transform="translate(381.564938 53.184)scale(0.12 -0.12)">
     <use xlink:href="#DejaVuSans-66"/>
     <use x="35.126953" xlink:href="#DejaVuSans-2d"/>
     <use x="71.210938" xlink:href="#DejaVuSans-49"/>
     <use x="100.703125" xlink:href="#DejaVuSans-20"/>
     <use x="132.490234" xlink:href="#DejaVuSans-63"/>
     <use x="187.470703" xlink:href="#DejaVuSans-75"/>
     <use x="250.849609" xlink:href="#DejaVuSans-72"/>
     <use x="291.962891" xlink:href="#DejaVuSans-76"/>
     <use x="351.142578" xlink:href="#DejaVuSans-65"/>
     <use x="412.666016" xlink:href="#DejaVuSans-20"/>
     <use x="444.453125" xlink:href="#DejaVuSans-75"/>
     <use x="507.832031" xlink:href="#DejaVuSans-6e"/>
     <use x="571.210938" xlink:href="#DejaVuSans-64"/>
     <use x="634.6875" xlink:href="#DejaVuSans-65"/>
     <use x="696.210938" xlink:href="#DejaVuSans-72"/>
     <use x="737.324219" xlink:href="#DejaVuSans-20"/>
     <use x="769.111328" xlink:href="#DejaVuSans-64"/>
     <use x="832.587891" xlink:href="#DejaVuSans-69"/>
     <use x="860.371094" xlink:href="#DejaVuSans-66"/>
     <use x="895.576172" xlink:href="#DejaVuSans-66"/>
     <use x="930.78125" xlink:href="#DejaVuSans-65"/>
     <use x="992.304688" xlink:href="#DejaVuSans-72"/>
     <use x="1033.386719" xlink:href="#DejaVuSans-65"/>
     <use x="1094.910156" xlink:href="#DejaVuSans-6e"/>
     <use x="1158.289062" xlink:href="#DejaVuSans-74"/>
     <use x="1197.498047" xlink:href="#DejaVuSans-20"/>
     <use x="1229.285156" xlink:href="#DejaVuSans-6e"/>
     <use x="1292.664062" xlink:href="#DejaVuSans-6f"/>
     <use x="1353.845703" xlink:href="#DejaVuSans-69"/>
     <use x="1381.628906" xlink:href="#DejaVuSans-73"/>
     <use x="1433.728516" xlink:href="#DejaVuSans-65"/>
     <use x="1495.251953" xlink:href="#DejaVuSans-20"/>
     <use x="1527.039062" xlink:href="#DejaVuSans-63"/>
     <use x="1582.019531" xlink:href="#DejaVuSans-6f"/>
     <use x="1643.201172" xlink:href="#DejaVuSans-6e"/>
     <use x="1706.580078" xlink:href="#DejaVuSans-64"/>
     <use x="1770.056641" xlink:href="#DejaVuSans-69"/>
     <use x="1797.839844" xlink:href="#DejaVuSans-74"/>
     <use x="1837.048828" xlink:href="#DejaVuSans-69"/>
     <use x="1864.832031" xlink:href="#DejaVuSans-6f"/>
     <use x="1926.013672" xlink:href="#DejaVuSans-6e"/>
     <use x="1989.392578" xlink:href="#DejaVuSans-73"/>
    </g>
   </g>
   <g id="legend_1">
    <g id="patch_7">
     <path d="M 129.94 111.218375 
L 267.863438 111.218375 
Q 269.863438 111.218375 269.863438 109.218375 
L 269.863438 66.184 
Q 269.863438 64.184 267.863438 64.184 
L 129.94 64.184 
Q 127.94 64.184 127.94 66.184 
L 127.94 109.218375 
Q 127.94 111.218375 129.94 111.218375 
z
" style="fill:#ffffff;opacity:0.8;stroke:#cccccc;stroke-linejoin:miter;"/>
    </g>
    <g id="line2d_19">
     <path d="M 131.94 72.282437 
L 151.94 72.282437 
" style="fill:none;stroke:#1f77b4;stroke-linecap:square;stroke-width:1.5;"/>
    </g>
    <g id="line2d_20"/>
    <g id="text_19">
     <!-- No noise -->
     <defs>
      <path d="M 9.8125 72.90625 
L 23.09375 72.90625 
L 55.421875 11.921875 
L 55.421875 72.90625 
L 64.984375 72.90625 
L 64.984375 0 
L 51.703125 0 
L 19.390625 60.984375 
L 19.390625 0 
L 9.8125 0 
z
" id="DejaVuSans-4e"/>
     </defs>
     <g transform="translate(159.94 75.782437)scale(0.1 -0.1)">
      <use xlink:href="#DejaVuSans-4e"/>
      <use x="74.804688" xlink:href="#DejaVuSans-6f"/>
      <use x="135.986328" xlink:href="#DejaVuSans-20"/>
      <use x="167.773438" xlink:href="#DejaVuSans-6e"/>
      <use x="231.152344" xlink:href="#DejaVuSans-6f"/>
      <use x="292.333984" xlink:href="#DejaVuSans-69"/>
      <use x="320.117188" xlink:href="#DejaVuSans-73"/>
      <use x="372.216797" xlink:href="#DejaVuSans-65"/>
     </g>
    </g>
    <g id="line2d_21">
     <path d="M 131.94 86.960562 
L 151.94 86.960562 
" style="fill:none;stroke:#ff7f0e;stroke-linecap:square;stroke-width:1.5;"/>
    </g>
    <g id="line2d_22"/>
    <g id="text_20">
     <!-- Noise ~ N(0, 0.05nA) -->
     <defs>
      <path d="M 73.1875 39.890625 
L 73.1875 31.203125 
Q 68.0625 27.34375 63.6875 25.6875 
Q 59.328125 24.03125 54.59375 24.03125 
Q 49.21875 24.03125 42.09375 26.90625 
Q 41.546875 27.09375 41.3125 27.203125 
Q 40.96875 27.34375 40.234375 27.59375 
Q 32.671875 30.609375 28.078125 30.609375 
Q 23.78125 30.609375 19.578125 28.734375 
Q 15.375 26.859375 10.59375 22.796875 
L 10.59375 31.5 
Q 15.71875 35.359375 20.09375 37.03125 
Q 24.46875 38.71875 29.203125 38.71875 
Q 34.578125 38.71875 41.75 35.796875 
Q 42.234375 35.59375 42.484375 35.5 
Q 42.875 35.359375 43.5625 35.109375 
Q 51.125 32.078125 55.71875 32.078125 
Q 59.90625 32.078125 64.03125 33.9375 
Q 68.171875 35.796875 73.1875 39.890625 
z
" id="DejaVuSans-7e"/>
      <path d="M 11.71875 12.40625 
L 22.015625 12.40625 
L 22.015625 4 
L 14.015625 -11.625 
L 7.71875 -11.625 
L 11.71875 4 
z
" id="DejaVuSans-2c"/>
     </defs>
     <g transform="translate(159.94 90.460562)scale(0.1 -0.1)">
      <use xlink:href="#DejaVuSans-4e"/>
      <use x="74.804688" xlink:href="#DejaVuSans-6f"/>
      <use x="135.986328" xlink:href="#DejaVuSans-69"/>
      <use x="163.769531" xlink:href="#DejaVuSans-73"/>
      <use x="215.869141" xlink:href="#DejaVuSans-65"/>
      <use x="277.392578" xlink:href="#DejaVuSans-20"/>
      <use x="309.179688" xlink:href="#DejaVuSans-7e"/>
      <use x="392.96875" xlink:href="#DejaVuSans-20"/>
      <use x="424.755859" xlink:href="#DejaVuSans-4e"/>
      <use x="499.560547" xlink:href="#DejaVuSans-28"/>
      <use x="538.574219" xlink:href="#DejaVuSans-30"/>
      <use x="602.197266" xlink:href="#DejaVuSans-2c"/>
      <use x="633.984375" xlink:href="#DejaVuSans-20"/>
      <use x="665.771484" xlink:href="#DejaVuSans-30"/>
      <use x="729.394531" xlink:href="#DejaVuSans-2e"/>
      <use x="761.181641" xlink:href="#DejaVuSans-30"/>
      <use x="824.804688" xlink:href="#DejaVuSans-35"/>
      <use x="888.427734" xlink:href="#DejaVuSans-6e"/>
      <use x="951.806641" xlink:href="#DejaVuSans-41"/>
      <use x="1020.214844" xlink:href="#DejaVuSans-29"/>
     </g>
    </g>
    <g id="line2d_23">
     <path d="M 131.94 101.638687 
L 151.94 101.638687 
" style="fill:none;stroke:#2ca02c;stroke-linecap:square;stroke-width:1.5;"/>
    </g>
    <g id="line2d_24"/>
    <g id="text_21">
     <!-- Noise ~ N(0, 0.1nA) -->
     <g transform="translate(159.94 105.138687)scale(0.1 -0.1)">
      <use xlink:href="#DejaVuSans-4e"/>
      <use x="74.804688" xlink:href="#DejaVuSans-6f"/>
      <use x="135.986328" xlink:href="#DejaVuSans-69"/>
      <use x="163.769531" xlink:href="#DejaVuSans-73"/>
      <use x="215.869141" xlink:href="#DejaVuSans-65"/>
      <use x="277.392578" xlink:href="#DejaVuSans-20"/>
      <use x="309.179688" xlink:href="#DejaVuSans-7e"/>
      <use x="392.96875" xlink:href="#DejaVuSans-20"/>
      <use x="424.755859" xlink:href="#DejaVuSans-4e"/>
      <use x="499.560547" xlink:href="#DejaVuSans-28"/>
      <use x="538.574219" xlink:href="#DejaVuSans-30"/>
      <use x="602.197266" xlink:href="#DejaVuSans-2c"/>
      <use x="633.984375" xlink:href="#DejaVuSans-20"/>
      <use x="665.771484" xlink:href="#DejaVuSans-30"/>
      <use x="729.394531" xlink:href="#DejaVuSans-2e"/>
      <use x="761.181641" xlink:href="#DejaVuSans-31"/>
      <use x="824.804688" xlink:href="#DejaVuSans-6e"/>
      <use x="888.183594" xlink:href="#DejaVuSans-41"/>
      <use x="956.591797" xlink:href="#DejaVuSans-29"/>
     </g>
    </g>
   </g>
  </g>
 </g>
 <defs>
  <clipPath id="pd66b9b72ce">
   <rect height="379.764" width="762.228" x="122.94" y="59.184"/>
  </clipPath>
 </defs>
</svg>
